<svg xmlns="http://www.w3.org/2000/svg" viewBox="0 0 256 256" width="256" height="256" role="img" aria-labelledby="title-a">
  <title id="title-a">Kinetic YU Symbol - YouTube Uploader Pro</title>
  <!-- Outer U-channel chassis with 45-degree angled terminals and smooth 24/56 arcs -->
  <path fill="#111111" fill-rule="evenodd" d="M36 84 L68 52 L68 164 A24 24 0 0 0 92 188 L164 188 A24 24 0 0 0 188 164 L188 52 L220 84 L220 164 A56 56 0 0 1 164 220 L92 220 A56 56 0 0 1 36 164 Z"/>
  <!-- Center ascending Y-arrow with exact 45-degree wings and orthogonal stem -->
  <path fill="#111111" d="M128 36 L172 80 L144 80 L144 160 L112 160 L112 80 L84 80 Z"/>
</svg>
